<svg xmlns="http://www.w3.org/2000/svg" viewBox="0 0 512 512">
  <defs>
    <linearGradient id="bg" x1="0%" y1="0%" x2="100%" y2="100%">
      <stop offset="0%" style="stop-color:#1a5276;stop-opacity:1" />
      <stop offset="100%" style="stop-color:#0e6655;stop-opacity:1" />
    </linearGradient>
    <linearGradient id="flame" x1="0%" y1="100%" x2="100%" y2="0%">
      <stop offset="0%" style="stop-color:#e67e22;stop-opacity:1" />
      <stop offset="50%" style="stop-color:#f39c12;stop-opacity:1" />
      <stop offset="100%" style="stop-color:#f1c40f;stop-opacity:1" />
    </linearGradient>
  </defs>
  <!-- Background circle -->
  <circle cx="256" cy="256" r="248" fill="url(#bg)" stroke="#0d4a3e" stroke-width="4"/>
  <!-- Inner ring -->
  <circle cx="256" cy="256" r="220" fill="none" stroke="rgba(255,255,255,0.15)" stroke-width="2"/>
  <!-- Fuel drop / flame icon -->
  <path d="M256 100 C256 100 310 175 330 230 C350 285 330 330 300 355 C285 368 268 375 256 378 C244 375 227 368 212 355 C182 330 162 285 182 230 C202 175 256 100 256 100 Z" fill="url(#flame)" opacity="0.95"/>
  <!-- Inner flame highlight -->
  <path d="M256 180 C256 180 290 225 298 258 C306 290 295 318 278 332 C270 339 262 342 256 344 C250 342 242 339 234 332 C217 318 206 290 214 258 C222 225 256 180 256 180 Z" fill="rgba(255,255,255,0.3)"/>
  <!-- Shield outline around drop -->
  <path d="M256 80 L340 140 L360 260 L320 360 L256 400 L192 360 L152 260 L172 140 Z" fill="none" stroke="rgba(255,255,255,0.5)" stroke-width="3" stroke-linejoin="round"/>
  <!-- EPRA text -->
  <text x="256" y="465" text-anchor="middle" font-family="Arial, Helvetica, sans-serif" font-weight="bold" font-size="72" fill="#ffffff" letter-spacing="12">EPRA</text>
</svg>
